<svg xmlns="http://www.w3.org/2000/svg" width="31.634" height="22.149" viewBox="0 0 31.634 22.149">
  <g id="youtube" transform="translate(0 0)">
    <path id="Path_3" data-name="Path 3" d="M30.983,3.466A3.963,3.963,0,0,0,28.194.678C25.719,0,15.817,0,15.817,0S5.915,0,3.439.652A4.044,4.044,0,0,0,.651,3.466,41.763,41.763,0,0,0,0,11.075a41.609,41.609,0,0,0,.651,7.609A3.964,3.964,0,0,0,3.44,21.472c2.5.677,12.377.677,12.377.677s9.9,0,12.377-.652a3.963,3.963,0,0,0,2.788-2.788,41.764,41.764,0,0,0,.651-7.609,39.64,39.64,0,0,0-.652-7.635Zm0,0" transform="translate(0)" fill="red"/>
    <path id="Path_4" data-name="Path 4" d="M204.969,111.969l8.234-4.743-8.234-4.743Zm0,0" transform="translate(-192.305 -96.152)" fill="#fff"/>
  </g>
</svg>
